<svg width="142" height="68" xmlns="http://www.w3.org/2000/svg" viewBox="0 0 316.9 58.8"><path d="M311.6 2.4c2.4 0 4.3 1.8 4.3 4.1s-1.9 4.2-4.3 4.2-4.3-1.8-4.3-4.2c.1-2.2 2-4.1 4.3-4.1zm0 9.3c2.9 0 5.3-2.3 5.3-5.2 0-2.8-2.4-5.1-5.3-5.1s-5.3 2.3-5.3 5.1c0 2.9 2.4 5.2 5.3 5.2zm.9-4.9c1.1 0 1.9-.4 1.9-1.6 0-.5-.2-1-.7-1.2-.5-.2-.9-.3-1.4-.3h-2.6v5.7h.9V6.8h1l1.7 2.7h1l-1.8-2.7zm-1.9-.7V4.3h1.5c.7 0 1.4.1 1.4.8 0 1-1.1.9-2 .9h-.9zm-198.7 50H96l10.4-20.2H94.2L83.8 56.1H67.9L94.6 4.2h15.9l-9.8 19.1H113l9.8-19.1h15.9l-26.8 51.9zm23.8 0h-16l26.7-51.9h16l-26.7 51.9zm32.4-20.2h-15.8l6.4-12.6h15.8l-6.4 12.6z"/><path d="M179.4 56.1h-15.1l20.3-39.4h-10.9l6.4-12.5h36.7l-6.4 12.5h-10.7l-20.3 39.4zm54.3 0h-38.9l26.7-51.9h39l-6.1 12H231l-3.9 7.6H246l-5.9 11.6H221l-4.3 8.4H240l-6.3 12.3zm57.9-18.9c-7.1 12-19.8 19.7-31.7 19.7-15.6 0-18-11.3-10.4-26 7.7-15 21.3-27.4 37.6-27.4 13.2 0 16.8 7.9 11.2 20.8l-15.2.7c2.4-4.4 3.6-9.9-1.8-9.9-7 0-12.9 10.8-15.4 15.7-2.7 5.2-6.9 14.1.3 14.1 4.9 0 9-4.3 11.5-8.6l13.9.9zM44.1 41.3H37s-4.7-7.6-12.6-9.6c0 0 5.4 3.2 8.9 9.6H26s-4.7-9.5-20.3-15.7h53C56.7 11.1 44.4 0 29.4 0 13.2 0 0 13.2 0 29.4c0 16.3 13.2 29.4 29.4 29.4 16 0 28.9-12.7 29.4-28.5h-26s8.7 4.4 11.3 11z"/></svg>
